<?xml version="1.0" encoding="utf-8"?>
<!-- Generator: Adobe Illustrator 25.4.1, SVG Export Plug-In . SVG Version: 6.00 Build 0)  -->
<svg version="1.1" xmlns="http://www.w3.org/2000/svg" xmlns:xlink="http://www.w3.org/1999/xlink" x="0px" y="0px"
	 viewBox="0 0 291.4 184.17" style="enable-background:new 0 0 291.4 184.17;" xml:space="preserve">
<style type="text/css">
	.st0{opacity:0.5;}
	.st1{fill:none;stroke:#3AAA35;stroke-width:3;stroke-linecap:round;stroke-miterlimit:10;}
	.st2{fill:none;stroke:#3AAA35;stroke-width:3;stroke-miterlimit:10;}
	.st3{fill:none;stroke:#000000;stroke-width:4;stroke-linecap:round;stroke-linejoin:round;stroke-miterlimit:10;}
</style>
<g id="Слой_1" class="st0">
</g>
<g id="Слой_3">
	<polyline class="st1" points="183.48,160.32 11.4,160.32 11.4,10.71 280.15,10.71 280.15,160.32 	"/>
	<line class="st2" x1="183.48" y1="160.32" x2="183.48" y2="160.32"/>
</g>
<g id="Слой_2">
	<g>
		<path class="st3" d="M140.43,92.87c0,0,1.4,22.18,26.11,19.37c24.7-2.81,20.77-4.49,20.77-4.49s12.35,26.39,8.7,29.76
			c-3.65,3.37-7.35,8.98,0.67,8.14s31.61-0.28,31.89-1.68c0.28-1.4-3.93-17.68-5.33-19.09c-1.4-1.4-13.75-4.33-26.39-20.13"/>
		<path class="st3" d="M223.24,124.87c0,0,45.19,20.77,50.25,16.28c4.79-4.26-3.29-22.64-4.14-24.54c-0.05-0.11-0.13-0.18-0.24-0.22
			c-18.74-7.29-21.32-21.17-21.67-24.85c-0.03-0.32,1.68-12.42,0.79-22.53c-0.69-7.84-7.31-14.39-7.48-14.56"/>
		<path class="st3" d="M68,21.57c0,0,26.11,3.93,32.28,4.49c6.18,0.56,14.04,2.25,16.56,4.21c2.52,1.96,39.22-5.6,61.68-1.7
			c0.05,0.01,19.22-3.16,37.97,7.59c18.93,10.86,21.02,15.09,24.07,18.17c0.05,0.05,0.1,0.09,0.17,0.11"/>
		<path class="st3" d="M141.3,97.26c0,0,7.55,45.01-4.24,52.31c-10.6,6.56-24.16,1.32-26.78,0.2c-0.25-0.11-0.35-0.39-0.23-0.63
			c0.93-1.79,4.57-8.55,6.52-8.55c2.25,0,1.4-19.64-21.6-37.32c-0.01-0.01-0.02-0.01-0.03-0.02c-0.5-0.31-15.5-9.82-19.64-26.66"/>
		<path class="st3" d="M94.95,103.25c0,0-21.26,9.51-41.16,46.41c-0.06,0.12-0.17,0.2-0.3,0.23c-2.64,0.54-30.82,6.11-27.87-0.04
			c3.09-6.46,3.09-8.98,10.95-12.35c7.86-3.37,17.12-58.39,22.46-60.91s-6.46-4.77-8.14-6.74c-1.68-1.96-3.65-17.4-13.75-17.68
			s-16-0.28-16.56-3.37c-0.56-3.09,9.26-0.56,8.98-5.89c-0.26-4.91-10.53-6.25-12.14-6.43c-0.14-0.02-0.26-0.09-0.33-0.21
			c-0.54-0.87-2.59-4.61,0.12-6.83c0.4-0.33,0.97-0.74,1.67-1.22c0.36-0.24,0.75-0.5,1.18-0.77c5.16-3.24,15.08-8.18,24.1-8.4
			c9.22-0.23,13.33,1.62,14.5,2.29c0.21,0.12,0.47,0.05,0.6-0.15c0.71-1.14,2.98-4.26,5.6-2.16c3.16,2.55,4.63,2.62,1.89,6.62"/>
		<path class="st3" d="M246.67,89.36"/>
		<path class="st3" d="M234.4,48.01"/>
		<path class="st3" d="M220.02,38.24"/>
		<path class="st3" d="M242.95,55.34"/>
		<path class="st3" d="M259.3,61.24"/>
		<path class="st3" d="M267.48,64.52"/>
		<path class="st3" d="M283.71,70.76"/>
	</g>
	<path class="st3" d="M240.56,54.34"/>
	<path class="st2" d="M220.02,159.66"/>
	<g>
		<g>
			<path d="M205.21,150.73c1.29,0.01,2.54,0.23,3.76,0.68c1.22,0.44,2.32,1.16,3.3,2.15c0.98,0.99,1.76,2.32,2.34,3.99
				c0.58,1.66,0.87,3.72,0.87,6.18c0.01,2.31-0.23,4.38-0.73,6.19c-0.5,1.82-1.2,3.35-2.12,4.61c-0.92,1.25-2.03,2.21-3.32,2.86
				c-1.3,0.66-2.75,0.99-4.38,0.99c-1.7,0-3.2-0.33-4.51-1s-2.37-1.58-3.17-2.73c-0.81-1.16-1.3-2.48-1.48-3.97h4.8
				c0.25,1.07,0.75,1.92,1.5,2.54c0.76,0.63,1.71,0.94,2.87,0.94c1.87,0,3.3-0.81,4.31-2.43c1.01-1.62,1.51-3.87,1.51-6.75h-0.18
				c-0.43,0.77-0.99,1.43-1.67,1.99c-0.68,0.56-1.46,0.98-2.32,1.28c-0.86,0.3-1.78,0.45-2.74,0.45c-1.58,0-2.99-0.38-4.25-1.13
				c-1.26-0.75-2.25-1.79-2.98-3.1s-1.1-2.82-1.11-4.51c0-1.75,0.41-3.33,1.22-4.72c0.81-1.4,1.94-2.5,3.4-3.31
				C201.56,151.11,203.26,150.71,205.21,150.73z M205.22,154.67c-0.95,0-1.8,0.23-2.56,0.69c-0.76,0.46-1.35,1.08-1.79,1.87
				c-0.43,0.78-0.65,1.66-0.65,2.62c0.01,0.95,0.22,1.82,0.65,2.6c0.42,0.78,1.01,1.4,1.75,1.85s1.59,0.68,2.54,0.68
				c0.71,0,1.37-0.14,1.98-0.41s1.15-0.65,1.61-1.14c0.46-0.49,0.82-1.04,1.08-1.66c0.26-0.62,0.38-1.28,0.37-1.97
				c0-0.92-0.22-1.77-0.65-2.55c-0.43-0.78-1.02-1.41-1.77-1.88C207.04,154.91,206.18,154.67,205.22,154.67z"/>
			<path d="M229.19,150.73c1.29,0.01,2.54,0.23,3.76,0.68c1.22,0.44,2.32,1.16,3.3,2.15c0.98,0.99,1.76,2.32,2.34,3.99
				c0.58,1.66,0.87,3.72,0.87,6.18c0.01,2.31-0.23,4.38-0.73,6.19c-0.5,1.82-1.2,3.35-2.12,4.61c-0.92,1.25-2.03,2.21-3.32,2.86
				c-1.3,0.66-2.75,0.99-4.38,0.99c-1.7,0-3.2-0.33-4.51-1s-2.37-1.58-3.17-2.73c-0.81-1.16-1.3-2.48-1.48-3.97h4.8
				c0.25,1.07,0.75,1.92,1.5,2.54c0.76,0.63,1.71,0.94,2.87,0.94c1.87,0,3.3-0.81,4.31-2.43c1.01-1.62,1.51-3.87,1.51-6.75h-0.18
				c-0.43,0.77-0.99,1.43-1.67,1.99c-0.68,0.56-1.46,0.98-2.32,1.28c-0.86,0.3-1.78,0.45-2.74,0.45c-1.58,0-2.99-0.38-4.25-1.13
				c-1.26-0.75-2.25-1.79-2.98-3.1s-1.1-2.82-1.11-4.51c0-1.75,0.41-3.33,1.22-4.72c0.81-1.4,1.94-2.5,3.4-3.31
				C225.54,151.11,227.24,150.71,229.19,150.73z M229.2,154.67c-0.95,0-1.8,0.23-2.56,0.69c-0.76,0.46-1.35,1.08-1.79,1.87
				c-0.43,0.78-0.65,1.66-0.65,2.62c0.01,0.95,0.22,1.82,0.65,2.6c0.42,0.78,1.01,1.4,1.75,1.85s1.59,0.68,2.54,0.68
				c0.71,0,1.37-0.14,1.98-0.41s1.15-0.65,1.61-1.14c0.46-0.49,0.82-1.04,1.08-1.66c0.26-0.62,0.38-1.28,0.37-1.97
				c0-0.92-0.22-1.77-0.65-2.55c-0.43-0.78-1.02-1.41-1.77-1.88C231.02,154.91,230.16,154.67,229.2,154.67z"/>
			<path d="M244.53,157.56v-1.42c0-1.05,0.22-2.01,0.67-2.89c0.45-0.88,1.1-1.58,1.95-2.11c0.85-0.53,1.88-0.79,3.09-0.79
				c1.23,0,2.27,0.27,3.12,0.79c0.85,0.53,1.48,1.23,1.91,2.11c0.43,0.88,0.64,1.84,0.64,2.89v1.42c0,1.05-0.22,2.01-0.65,2.88
				s-1.08,1.57-1.92,2.1s-1.88,0.79-3.1,0.79c-1.24,0-2.28-0.26-3.12-0.79s-1.49-1.23-1.92-2.1
				C244.75,159.56,244.53,158.6,244.53,157.56z M246.03,178.01l18.5-26.91h3.29l-18.5,26.91H246.03z M247.99,156.14v1.42
				c0,0.7,0.16,1.34,0.49,1.91c0.33,0.57,0.91,0.86,1.75,0.86c0.84,0,1.42-0.29,1.74-0.86c0.32-0.57,0.48-1.21,0.48-1.91v-1.42
				c0-0.7-0.15-1.34-0.46-1.92s-0.89-0.87-1.76-0.87c-0.83,0-1.42,0.29-1.75,0.88S247.99,155.45,247.99,156.14z M258.21,172.96
				v-1.42c0-1.04,0.22-2,0.66-2.88s1.09-1.58,1.94-2.12c0.85-0.53,1.88-0.8,3.09-0.8c1.24,0,2.29,0.27,3.13,0.79
				c0.84,0.53,1.48,1.23,1.91,2.11s0.65,1.84,0.65,2.89v1.42c0,1.04-0.22,2-0.66,2.88c-0.44,0.88-1.08,1.58-1.92,2.12
				c-0.84,0.53-1.88,0.8-3.11,0.8s-2.26-0.27-3.11-0.8c-0.85-0.53-1.49-1.24-1.93-2.12S258.21,174,258.21,172.96z M261.64,171.54
				v1.42c0,0.69,0.17,1.33,0.5,1.91s0.92,0.87,1.76,0.87c0.85,0,1.43-0.29,1.75-0.86c0.32-0.57,0.48-1.21,0.48-1.91v-1.42
				c0-0.7-0.15-1.34-0.46-1.92s-0.9-0.87-1.77-0.87c-0.82,0-1.41,0.29-1.75,0.87S261.64,170.84,261.64,171.54z"/>
		</g>
	</g>
</g>
</svg>
